# xmcd
#
# Track frame offsets: 
#        150
#        22899
#        42985
#        67509
#        89531
#        106527
#        133051
#        151873
#        175977
#        191506
#        212246
#
# Disc length: 3216 seconds
#
# Revision: 0
# Processed by: cddbd v1.5.2PL0 Copyright (c) Steve Scherf et al.
# Submitted via: ExactAudioCopy v0.99pb5
#
DISCID=850c8e0b
DTITLE=Omar and the Howlers - Boogie man
DYEAR=2003
DGENRE=Blues
TTITLE0=Boogie Man
TTITLE1=Bamboozled
TTITLE2=Stone Cold Blues
TTITLE3=White Crosses
TTITLE4=Drowning In Love
TTITLE5=Shakin'
TTITLE6=Right There In the Rain
TTITLE7=Bad In A Good Way
TTITLE8=That's Just My Life
TTITLE9=Mississippi Mud
TTITLE10=All The Love We Can Stand
EXTD=
EXTT0=
EXTT1=
EXTT2=
EXTT3=
EXTT4=
EXTT5=
EXTT6=
EXTT7=
EXTT8=
EXTT9=
EXTT10=
PLAYORDER=
